<?xml version="1.0" encoding="UTF-8"?>
<svg id="Calque_2" xmlns="http://www.w3.org/2000/svg" viewBox="0 0 1044.16 1080">
  <defs>
    <style>
      .cls-1 {
        fill: #fff;
      }
    </style>
  </defs>
  <g id="Calque_1-2" data-name="Calque_1">
    <g>
      <path class="cls-1" d="M535.06,87.22c1.75-.59,3.26-1.95,4.54-3.27,3.24-3.35,6.47-6.7,9.71-10.05,6.38-6.6,12.78-13.19,19.27-19.69,6.74-6.75,12.94-14.07,24.04-5.21,15.3,12.23,16.26,16.91,2.7,31.73-7.06,7.71-15.14,14.62-21.25,23-3.38,4.64-1.68,9.51,1.24,13.77,2.05,2.98,7.98,1.96,10.68-.05,11.39-8.47,22.09-17.94,32.47-27.65,6.89-6.44,13.21-11.22,22.03-3.53,8.82,7.69,9.6,16.41,1.93,24.89-8.91,9.86-18.47,19.15-28.1,28.32-7.87,7.5-8.12,13.43.47,21.14,44.75,40.16,73.13,91.6,98.08,145.19,2.65,5.69,2.12,12.95,2.63,19.51,1.27,16.48,5.46,21.43,21.97,21.42,17.83-.01,34.77,1.41,50.62,11.06,11.97,7.28,22.23,14.47,21.33,30.53-.51,8.99,5.19,11.56,13.15,9.98,6.99-1.39,13.89-3.19,20.84-4.8,15.48-3.58,30.17-2.53,43.51,7.13,9.29,6.72,15.73,14.62,15.67,27.08-.05,9.87,4.69,15.3,15.64,11.49,6.26-2.18,12.82-3.54,18.96-6,53.73-21.52,106.45,30.99,106.97,74.62.35,29.54-9.41,52.18-28.51,73.07-67.29,73.58-144.6,134.25-231.51,183.09-35.63,20.02-70.88,41.07-111.52,48.5-14.59,2.67-30.83.21-45.59-3.14-11.9-2.7-21.71-4.56-31.82,4.04-14.77,12.57-15.03,32.77-14.76,50.68.35,23.47,1.55,46.93,3.63,70.32.51,5.69,1.07,11.41,2.71,16.88,4.45,14.92,13.74,31.34,25.82,41.27,16.47,13.54,32.19,28.17,46.87,43.61,4.91,5.17,7.45,14.19,7.91,21.64.82,13.18-6.48,20.2-19.45,17.9-12.4-2.2-24.54-6.94-36.16-12.04-8.82-3.87-14.9-2.38-21.8,3.76-18.6,16.54-24.16,16.79-44,.51-11.1-9.11-23.08-10.4-34.55-4.32-22.24,11.78-43.4,9.02-63.59-2.97-12.77-7.58-21.93-5.09-31.69,4.37-14.85,14.41-17.79,14.39-34.72.97-16.08-12.75-32.73-16.12-51.47-5.59-5.18,2.91-11.65,4.76-17.58,4.89-15.3.33-25.25-16.17-16.75-28.61,10.93-16,23.88-30.61,35.31-46.29,3.93-5.4,8.75-12.44,8.29-18.36-2.46-31.69-6.52-63.26-9.9-94.89-1.11-10.35-3.61-20.98-2.23-31.04,1.51-11-2.56-15.21-11.69-19.12-48.76-20.89-93.78-47.72-132.42-84.6-26.8-25.57-45.36-56.23-59.42-90.26-4.49-10.86-10.9-20.9-19.32-29.1-37.31-36.37-67.62-77.37-88.96-125.1-17.51-39.17-21.06-78.55-5.05-118.98,7.97-20.13,20.99-36.8,39.42-47.35,9.62-5.51,22.39-6.47,33.91-7.48,19.66-1.73,24.55-7.24,16.28-25.3-17.79-38.87-19.85-79.01-11.7-120.07,2.2-11.08,5.84-22.01,11.82-31.6,5.96-9.55,3.87-15.54-2.87-22.34-10.05-10.12-19.88-20.46-29.91-30.6-6.07-6.14-11.19-11.61-2.49-20.15,14.62-14.35,21.1-16.58,31.12-7.3,9.75,9.04,18.74,18.91,28.08,28.4,2.33,2.37,4.36,5.99,7.15,6.76,5.16,1.42,10.43.7,14.53-3.05,2.56-2.34,2.18-8.39.36-11.21-6.92-10.71-15.25-20.61-23.7-30.23-7.32-8.33-6.41-15.18,1.74-21.84,8.12-6.63,17.02-13.18,25.84-2.31,8.02,9.88,14.78,20.89,21.2,31.93,4.48,7.7,9.4,12.46,17.98,6.93,8.78-5.65,2.25-11.53-.89-16.92-3.43-5.88-7.35-11.48-10.91-17.28-8.9-14.49-2.94-31.9,13.28-37.02,7.76-2.45,12.39.36,15.67,4.96,6.05,8.49,9.14,18.74,11.53,28.89,3.07,13.03,8.3,18.66,21.14,14.88,22.31-6.57,44.98-11.98,67.56-17.62,23.71-5.93,47.41-3.59,70.61,2.24,35.38,8.89,70.53,18.72,105.66,28.58,7.14,2.01,14.74-2.16,16.47-9.37,1.81-7.53,2.18-15.89,6.04-22.12,4.59-7.39,13.96-18.78,18.76-17.66,10.45,2.43,20.35,10.68,28.14,18.8,2.15,2.24-3.33,12.64-6.33,18.81-2.87,5.9-5.96,11.69-9.1,17.44-1.49,2.73-2.79,5.92-4.7,8.36-1.85,2.37-2.19,4.27-2.17,7.37,0,.35,0,.71.09,1.05.23.86.99,1.5,1.84,1.76,1.21.37,2.34.3,3.38-.05ZM578.3,777.89c-4.65-6.66-7.4-10.43-9.98-14.31-15.23-22.92-33.29-44.49-45.09-69.06-33.23-69.19-35.6-143.06-26.49-217.8.6-4.95,2.02-12.6,6.55-15.35,4.6-2.79,10.12-3.55,15.26-1.84,5.65,1.87,10.24,6.41,12.67,11.84,2.7,6.01,1.83,11.86,2.12,18.14.41,8.57-.9,17.5-1.45,26.07-.57,8.91-1.13,17.83-1.57,26.75-.87,17.76-1.26,35.58-.25,53.34,4.01,70.17,42.03,124.9,88.63,174.21,11.2,11.85,25,15.98,41.52,8.77,94.52-41.26,185.1-89.33,264.04-156.56,30.31-25.82,61.04-51.93,81.44-87.17,16.4-28.33,4.29-56.07-28.24-59.67-15.75-1.74-33.67,2.27-48.53,8.52-75.07,31.56-136.97,81.15-189.68,142.85-8.51,9.97-18.89,18.56-29.36,26.52-3.24,2.46-11.84,2.81-14.1.43-3.1-3.26-4.99-11.38-3.01-15.07,6.89-12.83,13.54-27.05,24.09-36.44,45.73-40.7,88.85-84.77,142.63-115.59,12.32-7.06,21.57-16.72,25.67-31.01,3.38-11.81.42-18.95-11.6-23.1-18.6-6.41-37.04-6.16-53.91,3.21-64.39,35.8-114.69,85.44-146.74,152.58-5.48,11.48-11.29,23.35-18.84,33.61-.75,1.02-1.51,2.04-2.36,2.98-2.79,3.03-6.79,5.04-10.9,4.96-4.11-.07-8.22-2.42-9.96-6.15-1.5-3.22-2.34-8.89-2.04-12.42.38-4.44,2.74-8.43,4.81-12.27,8.34-15.48,16.83-30.93,26.26-45.76,30.38-47.75,59.66-96.54,108.85-128.41,2.35-1.52,4.28-3.78,6.18-5.91,10.58-11.86,9.06-20.99-4.39-28.88-21.83-12.82-40.94-5.11-57.51,9.39-52.85,46.24-87.74,103.24-99.7,173.16-3.28,19.18-5.12,38.63-8.84,57.72-2.49,12.8-9.09,14.12-19.13,5.57-11.27-9.59-10.35-22.24-7.5-34.29,6.34-26.79,12.71-53.68,21.2-79.84,16.44-50.66,36.81-99.18,78.49-135.66,6.87-6.02,11.81-18.41,10.83-27.49-2-18.58-5.17-38.18-13.28-54.71-13.33-27.16-29.07-53.65-47.27-77.8-22.81-30.26-45.6-62.22-74.61-85.8-75.23-61.14-162.71-84.36-259.28-68.46-50.47,8.31-97.72,24.22-136.64,59.51-39.24,35.58-52.91,88.09-33.99,133.49,1.27,3.06,3.47,5.73,7.07,11.54.5-9.88.69-15.95,1.13-22.01,2.64-36.63,33.12-71.06,68.97-78,24.01-4.64,70.16,20.44,79.44,48.57,13.78,41.74,15.56,84.04-10.75,121.91-20.02,28.81-60.54,35.36-87.16,12.5-11.92-10.23-22.11-23.12-33.3-34.42-2.7-2.73-4.59-6.27-4.71-6.44-4.95,13.16-9.76,26.91-15.29,40.35-5.67,13.78-14.85,26.73-17.58,40.98-6.84,35.67-8.02,72.09,1.21,107.56,9.11,35,18.24,70.13,29.37,104.52,21.75,67.22,68.53,123.01,131.16,155.7,85.83,44.82,172.26,62.81,264.9,29.5,13.51-4.86,26.12-12.2,40.53-19.05ZM455.79,847.96c-.01.41-.03.81-.04,1.22-9.99,0-19.99.3-29.97-.09-7.25-.28-12.44,5.48-11.63,12.69,3.4,30.24,5.8,60.6,9.77,90.76.89,6.75,5.59,16.24,10.23,21.23,10.32,11.1,21.95,21.11,33.91,30.47,3.58,2.81,10.27,4.59,14.63,3.3,16.7-4.95,27.78-24.15,25.65-41.82-3.19-26.44-6.5-52.87-9.84-79.29-1.54-12.18.89-29.28-6.07-35.17-7.67-6.48-24.06-2.64-36.65-3.3ZM252.64,273.4c-.55-8.96-.2-18.08-1.83-26.84-3.75-20.22-22.5-37.35-41.9-39.45-14.16-1.53-32.04,13-39.46,32.06-11.5,29.57,1.1,72.88,26.78,91.98,11.13,8.28,24.28,7.87,35.19-1.41,17.44-14.85,23.07-34.08,21.22-56.33ZM619.75,1034.98c.52-.76.76-1.68.53-2.58-.25-.95-.95-1.71-1.66-2.39-4.34-4.09-9.62-6.95-14.75-9.93-5.62-3.26-11.35-6.37-17.37-8.82-12.56-5.12-21.06-17.03-22.32-30.53-1.9-20.31-5.99-40.48-6.81-60.8-.5-12.45-2.91-24.72-3.82-37.14-.84-11.41,2.1-22.61-.71-33.71-.41-1.62-.85-3.3-1.87-4.63-1.81-2.35-5.12-3.12-8.05-2.64s-5.58,1.97-8.16,3.44c-.3,1.21-1.47,1.95-2.41,2.77-3.48,3.07-4.22,8.19-4.07,12.83.33,10.51,2.93,21.35,4.41,31.78,1.59,11.16,3.19,22.32,4.82,33.48,3.22,22.05,6.52,44.08,9.92,66.1,1.65,10.67-.79,15.93-12.33,16.99-12.91,1.19-22.5,9.41-29.71,19.62-1.24,1.75-2.92,3.44-2.99,5.58-.02.52.07,1.07.35,1.51.48.79,1.47,1.17,2.4,1.12s1.8-.47,2.58-.97c1.61-1.03,2.62-2.75,4.13-3.8,1.43-1,3.76-1.45,5.42-1.97,3.48-1.09,7.07-1.85,10.7-2.18,6.99-.63,14,.48,20.45,3.23,4.39,1.87,8.46,4.42,12.21,7.37,3.31,2.61,13.43,2.57,15.28.02,3.8-5.22,9.01-9.45,15.65-9.97,6.67-.52,12.14,2.34,17.67,5.69.95.58,1.92,1.13,2.94,1.58,1.69.74,3.62,1.19,5.37.61.87-.29,1.66-.9,2.18-1.66ZM444.64,1029.21c.53-.25.98-.63,1.23-1.17.16-.34.23-.72.28-1.1.14-.92.24-1.87.09-2.79-.31-1.87-1.9-3.49-3.19-4.77-1.39-1.39-2.98-2.68-4.86-3.31-33.77-11.28-47.15-34.72-48.57-69.69-1.18-29.17-10.26-57.95-6.68-88.65.86-7.37-4.38-14.04-11.76-14.81-7.95-.83-15,5.51-14.7,13.5.05,1.34.15,2.65.33,3.94,5.8,41.37,11.51,82.76,18.12,124,1.7,10.6.89,16.09-10.81,20.08-5.21,1.78-10.22,4.14-14.76,7.28-4.06,2.81-7.7,6.2-10.81,10.03-1.75,2.15-3.33,4.42-4.77,6.79-.7,1.16-1.26,2.45-2.21,3.41-.84.85-1.3,2,0,2.78.51.31,1.13.39,1.73.42,2.47.12,4.91-.65,7.09-1.8,4.4-2.33,7.98-5.86,12.55-7.94,10.66-4.85,21.48-.37,30.89,5.14,4.94,2.89,16.32,2.12,20.03-1.64,3.64-3.7,8.16-6.77,13.46-7.22,4.35-.37,10.01.92,13.61,3.47,2.22,1.57,4.69,2.49,7.27,3.39,1.36.47,2.73.95,4.16,1.04.76.05,1.59-.05,2.27-.37ZM90.93,362.97c-.14-.14-.29-.27-.45-.39-3.29-2.51-7.56.66-10.74,2.08-3.74,1.67-7.42,3.48-10.98,5.48-7.02,3.94-13.6,8.66-19.42,14.24-12.06,11.57-19.43,25.31-14.42,42.09,7.59,25.43,16.05,50.6,24.75,75.67,1.78,5.14,2.69,10.14,7.1,13.73.81.66,1.67,1.25,2.54,1.83.51.35,1.05.71,1.67.79.28.04.56.01.83-.05,3.22-.8,1.75-9.73,1.76-12.13.02-4.28.02-8.56-.1-12.84-.59-20.77-2.12-41.61-.48-62.37.89-11.3,2.77-22.55,6.23-33.37,1.77-5.53,3.95-10.92,6.54-16.11,1.34-2.68,2.79-5.31,4.35-7.87,1.65-2.72,2.97-4.26,2.38-7.61-.21-1.17-.7-2.33-1.53-3.17Z"/>
      <path class="cls-1" d="M488.51,290.26c-.62,33.03-2.59,58.13-19.4,80.01-29.73,38.7-63.49,41.7-96.73,25.28-36.68-18.11-63.94-48.85-70.23-92.8-6.99-48.85,48.43-123.46,115.08-96.27,4.38,1.79,9.05,2.88,13.42,4.7,38.26,16,62.33,41.52,57.86,79.08ZM452.23,305.14c-1.04-8.94-1.59-17.98-3.22-26.81-4.42-23.99-23.95-40.96-48.7-42.88-26.69-2.07-48.98,11.91-57.2,35.66-8.96,25.88,1.06,48.18,12.29,70.68,9.54,19.12,26.92,26.18,45.46,30.59,6.45,1.53,15.41-.97,21.28-4.7,22.63-14.38,30.33-36.59,30.1-62.55Z"/>
      <path class="cls-1" d="M287.64,429.74c2.73,4.35,9.04,4.45,11.91.19,7.43-11.06,14.5-21.84,22.7-31.68.49-.59,1.09-1.1,1.77-1.53,8.68-5.58,20.47,1.84,20.47,12.15,0,.35-.01.7-.04,1.05-.73,8.82-4.06,17.44-6.51,26.08-4.65,16.43-5.77,31.91,4.2,47.68,6.18,9.78,14.23,22.1,1.58,33.35-9.68,8.61-26.35,5.82-37.37-7.43-22.09-26.56-43.7-53.58-64.27-81.32-5.24-7.06-7.31-17.44-8.02-26.52-.38-4.86,4.11-12.17,8.51-14.66,3.3-1.86,11.42.69,14.81,3.96,8.1,7.81,14.99,16.97,21.75,26.04,3.09,4.15,5.91,8.5,8.51,12.65Z"/>
      <path class="cls-1" d="M455.08,682.28c7.21-6.7,18.8-5.91,25.01,1.73,3.29,4.06,5.83,7.9,6.27,11.96,2.12,19.68,13.01,31.72,27.38,42.77,6.02,4.63,14.53,9.38,6.52,19.45-8.18,10.28-15.11,2.25-20.47-2.29-16.96-14.37-33.93-28.96-48.85-45.33-3.91-4.3-2.3-16.1.35-23.12.71-1.88,2.03-3.53,3.79-5.16Z"/>
      <path class="cls-1" d="M324.77,584.45c.13-.91.3-1.81.51-2.71,1.7-7.21,5.51-16.45,11.62-20.91,6.04-4.41,19.35,9.12,23.43,20.35,5.38,14.84,12.22,29.14,18,43.84,2.02,5.13,4.48,11.07,3.61,16.1-1.16,6.67-7.43,14.02-13.86,7.19-8.79-9.35-16.99-19.23-24.99-29.27-4-5.03-7.96-10.1-11.91-15.16-1.72-2.2-3.91-4.32-5.02-6.89-1.11-2.58-1.61-5.39-1.67-8.19-.03-1.46.07-2.92.27-4.37Z"/>
      <path class="cls-1" d="M205.43,573.92c.42,10.46-11.25,16.56-19.62,10.27-9.8-7.37-17.82-16.06-22.01-27.46-3.41-9.27-.17-21.9,2.71-32.27,1.97-7.1,16.29-7.42,22.33-1.78,8.78,8.2,15.81,31.64,16.59,51.24Z"/>
      <path class="cls-1" d="M321.39,735.74c-.78-.22-1.49-.69-2.16-1.14-1.59-1.06-3.27-2-4.55-3.41-1.36-1.5-2.76-2.97-4.15-4.45-2.71-2.9-5.42-5.81-8.09-8.75-5.31-5.85-10.48-11.85-15.16-18.23-4.6-6.27-6.89-15.99-6.25-23.82.23-2.82,1.34-5.56,2.82-8.27,3.79-6.94,12.37-9.97,19.59-6.74,4,1.79,7.36,3.81,8.35,6.65,1.37,3.94,2.64,7.91,3.82,11.91,2.48,8.35,4.62,16.81,6.65,25.28,1.91,7.94,4.97,16.44,4.49,24.68-.09,1.49-.3,3.01-1.06,4.29-.76,1.28-2.17,2.27-3.66,2.14-.22-.02-.44-.06-.65-.12Z"/>
      <path class="cls-1" d="M448.89,537.12c8.14,19.92-21.08,34.77-31.81,16.11-5.2-9.05-7.51-18.54-6.12-27.42.87-5.55,3.77-13.17,7.93-15.1,3.67-1.7,11.31,2.04,15.63,5.39,5.77,4.48,10.71,12.08,14.36,21.01Z"/>
      <path class="cls-1" d="M213.46,247.46c12.9.14,23.61,11.02,23.32,23.7-.27,12.03-12.69,27.82-22.06,28.03-11.98.27-27.71-13.34-27.81-24.04-.14-15.12,12.05-27.84,26.54-27.68Z"/>
      <path class="cls-1" d="M425.14,299.47c.05,20.37-11.77,38.64-24.62,38.03-12.38-.59-31.74-20.46-31.6-32.43.18-15.8,15.24-37.72,25.58-37.22,12.36.59,30.62,19.43,30.65,31.63Z"/>
    </g>
  </g>
</svg>